<svg width="1609" height="1024" viewBox="0 0 1609 1024" fill="none" xmlns="http://www.w3.org/2000/svg">
<g clip-path="url(#clip0_408_455)">
<rect width="1609" height="1024" fill="#467BC0"/>
<rect x="-98" width="1782" height="1024" fill="#011E86"/>
<g filter="url(#filter0_d_408_455)">
<path fill-rule="evenodd" clip-rule="evenodd" d="M1406 519H641V958.596H1406V519ZM1130.76 631.333C1103.6 609.541 1065.42 584.161 1028.96 593.564C1008.15 598.931 1000.81 616.437 993.277 634.411C986.906 649.615 980.394 665.153 965.468 673.957C950.895 682.553 930.169 682.46 910.1 682.371C885.501 682.261 861.888 682.156 851.797 698.058C840.553 715.778 857.608 732.874 875.058 750.366C884.319 759.649 893.691 769.044 899.003 778.703C903.58 787.026 905.735 796.872 907.865 806.605C911.827 824.704 915.703 842.41 934.909 849.191C951.749 855.136 968.121 846.851 984.979 838.319C999.11 831.168 1013.58 823.845 1028.96 824.582C1045.84 825.392 1061 834.369 1075.77 843.117C1094.08 853.958 1111.8 864.45 1131.48 858.621C1158.23 850.698 1163.57 823.728 1168.47 798.979C1169.62 793.162 1170.75 787.468 1172.13 782.173C1178.63 757.144 1177.63 732.304 1170.79 707.335L1170.61 706.692C1163.11 679.336 1155.36 651.061 1130.76 631.333Z" fill="#02238D"/>
</g>
<g filter="url(#filter1_d_408_455)">
<path fill-rule="evenodd" clip-rule="evenodd" d="M972 352H207V791.596H972V352ZM686.02 429.798C651.936 413.14 608.658 407.775 570.513 417.051C551.478 421.679 539.941 434.771 528.205 448.089C518.988 458.549 509.648 469.148 496.457 475.895C482.662 482.95 464.756 485.105 447.281 487.208C422.16 490.23 397.93 493.146 388.086 510.36C374.292 534.478 397.356 560.694 417.794 583.925C421.327 587.94 424.781 591.867 427.953 595.678C437.082 606.645 450.643 613.528 464.305 620.463C475.822 626.308 487.411 632.191 496.476 640.587C507.98 651.241 515.34 665.12 522.577 678.765C533.826 699.972 544.775 720.616 570.513 727.716C612.363 739.261 660.923 719.162 693.397 694.909C716.99 677.288 724.123 651.654 731.274 625.954C733.486 618.006 735.699 610.052 738.401 602.327C740.78 595.526 743.531 588.744 746.278 581.969C756.124 557.69 765.93 533.51 758.461 508.91C748.546 476.252 721.63 447.202 686.02 429.798Z" fill="#0339AA"/>
</g>
<g filter="url(#filter2_d_408_455)">
<path fill-rule="evenodd" clip-rule="evenodd" d="M1354 174H589V613.596H1354V174ZM1065.07 231.079C1029.63 215.688 994.745 200.886 954.669 197.992C911.345 194.864 864.821 194.172 828.93 214.026C792.62 234.113 772.092 268.811 763.586 303.697C757.619 328.171 766.574 351.746 775.64 375.611C778.546 383.263 781.464 390.945 783.905 398.695C786.434 406.725 788.599 414.807 790.752 422.847C797.913 449.584 804.95 475.858 824.854 498.234C827.587 501.306 830.335 504.43 833.106 507.581C865.321 544.211 900.765 584.512 954.669 590.667C1014.09 597.452 1078.26 570.115 1114.19 531.271C1134.31 509.515 1131.9 482.314 1129.43 454.499C1127.81 436.183 1126.16 417.602 1130.91 400.133C1134.94 385.298 1145.51 371.42 1155.89 357.792C1171.62 337.149 1186.9 317.081 1178.36 295.137C1167.73 267.853 1132.8 255.64 1098.44 243.629C1086.94 239.609 1075.51 235.611 1065.07 231.079Z" fill="#0350CA"/>
</g>
<g filter="url(#filter3_d_408_455)">
<path fill-rule="evenodd" clip-rule="evenodd" d="M910 65H145V504.596H910V65ZM566.688 90.3515C551.525 91.1401 536.321 91.9308 521.619 91.3946C505.422 90.8037 488.415 88.1714 471.431 85.5427C431.872 79.4199 392.44 73.3167 363.662 93.0743C339.086 109.948 340.034 136.755 341.012 164.396C341.685 183.418 342.372 202.835 334.764 219.681C326.755 237.413 309.987 252.847 293.562 267.965C269.258 290.335 245.707 312.011 252.406 339.411C260.127 370.991 298.581 385.999 337.096 401.031C353.565 407.459 370.045 413.891 384.138 421.625C396.137 428.21 407.666 435.439 419.141 442.633C450.817 462.493 482.075 482.092 521.619 487.152C581.066 494.76 644.031 487.44 694.854 461.388C747.549 434.376 797.658 392.919 803.397 342.71C806.921 311.874 783.484 286.908 759.548 261.411C745.843 246.812 731.975 232.039 722.911 215.891C715.184 202.123 711.369 186.674 707.6 171.413C701.173 145.386 694.88 119.903 669.542 104.232C640.862 86.4937 603.899 88.4161 566.688 90.3515Z" fill="#0063E0"/>
</g>
<path d="M319.635 557.3H328.221L332.19 600.878H332.352L336.564 557.3H346.284L350.496 600.878H350.658L354.627 557.3H362.322L356.571 614H345.474L341.424 575.768H341.262L337.212 614H325.386L319.635 557.3ZM366.829 557.3H391.129V565.4H375.739V580.385H387.97V588.485H375.739V605.9H391.129V614H366.829V557.3ZM396.255 557.3H405.165V605.9H419.826V614H396.255V557.3ZM436.337 614.81C432.071 614.81 428.804 613.595 426.536 611.165C424.322 608.735 423.215 605.306 423.215 600.878V570.422C423.215 565.994 424.322 562.565 426.536 560.135C428.804 557.705 432.071 556.49 436.337 556.49C440.603 556.49 443.843 557.705 446.057 560.135C448.325 562.565 449.459 565.994 449.459 570.422V576.416H441.035V569.855C441.035 566.345 439.55 564.59 436.58 564.59C433.61 564.59 432.125 566.345 432.125 569.855V601.526C432.125 604.982 433.61 606.71 436.58 606.71C439.55 606.71 441.035 604.982 441.035 601.526V592.859H449.459V600.878C449.459 605.306 448.325 608.735 446.057 611.165C443.843 613.595 440.603 614.81 436.337 614.81ZM467.827 614.81C463.453 614.81 460.105 613.568 457.783 611.084C455.461 608.6 454.3 605.09 454.3 600.554V570.746C454.3 566.21 455.461 562.7 457.783 560.216C460.105 557.732 463.453 556.49 467.827 556.49C472.201 556.49 475.549 557.732 477.871 560.216C480.193 562.7 481.354 566.21 481.354 570.746V600.554C481.354 605.09 480.193 608.6 477.871 611.084C475.549 613.568 472.201 614.81 467.827 614.81ZM467.827 606.71C470.905 606.71 472.444 604.847 472.444 601.121V570.179C472.444 566.453 470.905 564.59 467.827 564.59C464.749 564.59 463.21 566.453 463.21 570.179V601.121C463.21 604.847 464.749 606.71 467.827 606.71ZM487.38 557.3H500.097L505.767 597.881H505.929L511.599 557.3H524.316V614H515.892V571.07H515.73L509.25 614H501.798L495.318 571.07H495.156V614H487.38V557.3ZM530.965 557.3H555.265V565.4H539.875V580.385H552.106V588.485H539.875V605.9H555.265V614H530.965V557.3ZM580.329 565.4H571.014V557.3H598.554V565.4H589.239V614H580.329V565.4ZM615.431 614.81C611.057 614.81 607.709 613.568 605.387 611.084C603.065 608.6 601.904 605.09 601.904 600.554V570.746C601.904 566.21 603.065 562.7 605.387 560.216C607.709 557.732 611.057 556.49 615.431 556.49C619.805 556.49 623.153 557.732 625.475 560.216C627.797 562.7 628.958 566.21 628.958 570.746V600.554C628.958 605.09 627.797 608.6 625.475 611.084C623.153 613.568 619.805 614.81 615.431 614.81ZM615.431 606.71C618.509 606.71 620.048 604.847 620.048 601.121V570.179C620.048 566.453 618.509 564.59 615.431 564.59C612.353 564.59 610.814 566.453 610.814 570.179V601.121C610.814 604.847 612.353 606.71 615.431 606.71ZM654.922 565.4H645.607V557.3H673.147V565.4H663.832V614H654.922V565.4ZM677.461 557.3H686.371V580.385H695.929V557.3H704.839V614H695.929V588.485H686.371V614H677.461V557.3ZM711.475 557.3H735.775V565.4H720.385V580.385H732.616V588.485H720.385V605.9H735.775V614H711.475V557.3ZM411.129 635.3H423.198L432.432 692H423.522L421.902 680.741V680.903H411.777L410.157 692H401.895L411.129 635.3ZM420.849 673.208L416.88 645.182H416.718L412.83 673.208H420.849ZM462.841 697.265C458.791 697.265 456.307 695.456 455.389 691.838C453.715 692.486 451.744 692.81 449.476 692.81C445.102 692.81 441.754 691.568 439.432 689.084C437.11 686.6 435.949 683.09 435.949 678.554V648.746C435.949 644.21 437.11 640.7 439.432 638.216C441.754 635.732 445.102 634.49 449.476 634.49C453.85 634.49 457.198 635.732 459.52 638.216C461.842 640.7 463.003 644.21 463.003 648.746V678.554C463.003 682.334 462.166 685.439 460.492 687.869C460.816 688.409 461.221 688.76 461.707 688.922C462.193 689.084 462.895 689.165 463.813 689.165H465.19V697.265H462.841ZM449.476 684.71C452.554 684.71 454.093 682.847 454.093 679.121V648.179C454.093 644.453 452.554 642.59 449.476 642.59C446.398 642.59 444.859 644.453 444.859 648.179V679.121C444.859 682.847 446.398 684.71 449.476 684.71ZM481.989 692.81C477.669 692.81 474.375 691.595 472.107 689.165C469.839 686.681 468.705 683.144 468.705 678.554V635.3H477.615V679.202C477.615 681.146 477.993 682.55 478.749 683.414C479.559 684.278 480.693 684.71 482.151 684.71C483.609 684.71 484.716 684.278 485.472 683.414C486.282 682.55 486.687 681.146 486.687 679.202V635.3H495.273V678.554C495.273 683.144 494.139 686.681 491.871 689.165C489.603 691.595 486.309 692.81 481.989 692.81ZM508.345 635.3H520.414L529.648 692H520.738L519.118 680.741V680.903H508.993L507.373 692H499.111L508.345 635.3ZM518.065 673.208L514.096 645.182H513.934L510.046 673.208H518.065ZM533.971 635.3H547.174C551.764 635.3 555.112 636.38 557.218 638.54C559.324 640.646 560.377 643.913 560.377 648.341V651.824C560.377 657.71 558.433 661.436 554.545 663.002V663.164C556.705 663.812 558.217 665.135 559.081 667.133C559.999 669.131 560.458 671.804 560.458 675.152V685.115C560.458 686.735 560.512 688.058 560.62 689.084C560.728 690.056 560.998 691.028 561.43 692H552.358C552.034 691.082 551.818 690.218 551.71 689.408C551.602 688.598 551.548 687.14 551.548 685.034V674.666C551.548 672.074 551.116 670.265 550.252 669.239C549.442 668.213 548.011 667.7 545.959 667.7H542.881V692H533.971V635.3ZM546.121 659.6C547.903 659.6 549.226 659.141 550.09 658.223C551.008 657.305 551.467 655.766 551.467 653.606V649.232C551.467 647.18 551.089 645.695 550.333 644.777C549.631 643.859 548.497 643.4 546.931 643.4H542.881V659.6H546.121ZM566.64 635.3H575.55V692H566.64V635.3ZM595.183 692.81C590.863 692.81 587.569 691.595 585.301 689.165C583.033 686.681 581.899 683.144 581.899 678.554V635.3H590.809V679.202C590.809 681.146 591.187 682.55 591.943 683.414C592.753 684.278 593.887 684.71 595.345 684.71C596.803 684.71 597.91 684.278 598.666 683.414C599.476 682.55 599.881 681.146 599.881 679.202V635.3H608.467V678.554C608.467 683.144 607.333 686.681 605.065 689.165C602.797 691.595 599.503 692.81 595.183 692.81ZM614.813 635.3H627.53L633.2 675.881H633.362L639.032 635.3H651.749V692H643.325V649.07H643.163L636.683 692H629.231L622.751 649.07H622.589V692H614.813V635.3Z" fill="white"/>
<rect x="655" y="715" width="299" height="48" rx="16" fill="#E5E5E5"/>
<path d="M672.37 744.892L675.238 744.441C675.399 745.59 675.845 746.471 676.576 747.083C677.317 747.696 678.348 748.002 679.669 748.002C681.001 748.002 681.99 747.733 682.634 747.196C683.279 746.648 683.601 746.009 683.601 745.279C683.601 744.624 683.316 744.108 682.747 743.732C682.35 743.474 681.361 743.146 679.782 742.749C677.655 742.212 676.178 741.75 675.351 741.363C674.535 740.966 673.912 740.423 673.482 739.736C673.063 739.038 672.854 738.27 672.854 737.432C672.854 736.669 673.025 735.965 673.369 735.321C673.724 734.666 674.202 734.123 674.803 733.693C675.254 733.36 675.867 733.081 676.64 732.855C677.424 732.619 678.262 732.501 679.154 732.501C680.497 732.501 681.673 732.694 682.683 733.081C683.703 733.468 684.455 733.994 684.938 734.66C685.422 735.315 685.755 736.196 685.938 737.303L683.102 737.689C682.973 736.809 682.597 736.121 681.974 735.627C681.361 735.133 680.491 734.886 679.363 734.886C678.031 734.886 677.081 735.106 676.511 735.546C675.942 735.987 675.657 736.502 675.657 737.093C675.657 737.469 675.775 737.808 676.012 738.108C676.248 738.42 676.619 738.678 677.124 738.882C677.414 738.989 678.268 739.236 679.686 739.623C681.737 740.171 683.166 740.622 683.972 740.977C684.788 741.32 685.427 741.825 685.889 742.491C686.351 743.157 686.582 743.984 686.582 744.973C686.582 745.939 686.297 746.853 685.728 747.712C685.169 748.561 684.358 749.221 683.295 749.694C682.231 750.156 681.028 750.387 679.686 750.387C677.462 750.387 675.765 749.925 674.594 749.001C673.434 748.077 672.692 746.708 672.37 744.892ZM701.197 743.732L704.049 744.103C703.737 746.068 702.937 747.61 701.648 748.727C700.37 749.833 698.796 750.387 696.927 750.387C694.585 750.387 692.7 749.624 691.271 748.099C689.853 746.562 689.144 744.366 689.144 741.508C689.144 739.661 689.45 738.044 690.062 736.658C690.675 735.272 691.604 734.236 692.85 733.548C694.107 732.85 695.471 732.501 696.943 732.501C698.801 732.501 700.321 732.974 701.503 733.919C702.685 734.854 703.442 736.186 703.775 737.915L700.955 738.35C700.687 737.201 700.208 736.336 699.521 735.756C698.844 735.176 698.022 734.886 697.056 734.886C695.595 734.886 694.408 735.412 693.495 736.465C692.582 737.507 692.125 739.161 692.125 741.428C692.125 743.727 692.565 745.397 693.446 746.439C694.327 747.481 695.477 748.002 696.895 748.002C698.033 748.002 698.984 747.653 699.747 746.955C700.509 746.256 700.993 745.182 701.197 743.732ZM706.498 750V732.888H709.108V735.482C709.774 734.268 710.387 733.468 710.945 733.081C711.515 732.694 712.138 732.501 712.814 732.501C713.792 732.501 714.786 732.812 715.795 733.436L714.796 736.126C714.087 735.708 713.378 735.498 712.669 735.498C712.036 735.498 711.466 735.691 710.961 736.078C710.457 736.454 710.097 736.98 709.882 737.657C709.56 738.688 709.398 739.816 709.398 741.041V750H706.498ZM716.44 741.444C716.44 738.275 717.321 735.928 719.083 734.402C720.554 733.135 722.348 732.501 724.464 732.501C726.817 732.501 728.74 733.274 730.233 734.821C731.726 736.357 732.473 738.484 732.473 741.202C732.473 743.404 732.14 745.139 731.474 746.407C730.818 747.664 729.857 748.641 728.589 749.339C727.333 750.038 725.958 750.387 724.464 750.387C722.069 750.387 720.13 749.619 718.647 748.083C717.176 746.546 716.44 744.333 716.44 741.444ZM719.421 741.444C719.421 743.635 719.899 745.279 720.855 746.375C721.811 747.459 723.014 748.002 724.464 748.002C725.904 748.002 727.102 747.454 728.058 746.358C729.014 745.263 729.492 743.592 729.492 741.347C729.492 739.231 729.008 737.63 728.042 736.545C727.085 735.45 725.893 734.902 724.464 734.902C723.014 734.902 721.811 735.444 720.855 736.529C719.899 737.614 719.421 739.252 719.421 741.444ZM735.824 750V726.378H738.725V750H735.824ZM743.172 750V726.378H746.072V750H743.172ZM766.101 747.406L766.52 749.968C765.704 750.14 764.973 750.226 764.329 750.226C763.276 750.226 762.459 750.059 761.879 749.726C761.299 749.393 760.891 748.958 760.655 748.421C760.418 747.873 760.3 746.729 760.3 744.989V735.144H758.173V732.888H760.3V728.65L763.185 726.91V732.888H766.101V735.144H763.185V745.15C763.185 745.977 763.233 746.509 763.33 746.745C763.437 746.981 763.604 747.169 763.829 747.309C764.065 747.449 764.398 747.519 764.828 747.519C765.15 747.519 765.575 747.481 766.101 747.406ZM767.874 741.444C767.874 738.275 768.754 735.928 770.516 734.402C771.988 733.135 773.782 732.501 775.898 732.501C778.25 732.501 780.173 733.274 781.667 734.821C783.16 736.357 783.906 738.484 783.906 741.202C783.906 743.404 783.573 745.139 782.907 746.407C782.252 747.664 781.291 748.641 780.023 749.339C778.766 750.038 777.391 750.387 775.898 750.387C773.502 750.387 771.563 749.619 770.081 748.083C768.609 746.546 767.874 744.333 767.874 741.444ZM770.854 741.444C770.854 743.635 771.333 745.279 772.289 746.375C773.245 747.459 774.448 748.002 775.898 748.002C777.337 748.002 778.535 747.454 779.491 746.358C780.447 745.263 780.925 743.592 780.925 741.347C780.925 739.231 780.442 737.63 779.475 736.545C778.519 735.45 777.327 734.902 775.898 734.902C774.448 734.902 773.245 735.444 772.289 736.529C771.333 737.614 770.854 739.252 770.854 741.444ZM808.221 744.489L811.218 744.86C810.746 746.611 809.87 747.97 808.592 748.937C807.313 749.903 805.681 750.387 803.693 750.387C801.19 750.387 799.203 749.619 797.731 748.083C796.271 746.536 795.54 744.371 795.54 741.589C795.54 738.71 796.281 736.476 797.764 734.886C799.246 733.296 801.169 732.501 803.532 732.501C805.82 732.501 807.689 733.28 809.14 734.837C810.59 736.395 811.315 738.586 811.315 741.412C811.315 741.583 811.31 741.841 811.299 742.185H798.537C798.645 744.065 799.176 745.504 800.132 746.503C801.088 747.502 802.281 748.002 803.709 748.002C804.773 748.002 805.681 747.723 806.433 747.164C807.185 746.605 807.781 745.714 808.221 744.489ZM798.698 739.8H808.253C808.125 738.361 807.759 737.281 807.158 736.562C806.234 735.444 805.036 734.886 803.564 734.886C802.232 734.886 801.11 735.332 800.197 736.223C799.294 737.115 798.795 738.307 798.698 739.8ZM812.942 750L819.194 741.105L813.41 732.888H817.035L819.662 736.9C820.156 737.663 820.553 738.302 820.854 738.817C821.327 738.108 821.762 737.48 822.159 736.932L825.043 732.888H828.508L822.594 740.944L828.959 750H825.398L821.885 744.683L820.951 743.249L816.455 750H812.942ZM831.376 756.558V732.888H834.019V735.111C834.642 734.241 835.345 733.591 836.129 733.162C836.914 732.721 837.864 732.501 838.981 732.501C840.442 732.501 841.731 732.877 842.849 733.629C843.966 734.381 844.809 735.444 845.378 736.819C845.948 738.184 846.232 739.682 846.232 741.315C846.232 743.066 845.916 744.645 845.282 746.052C844.659 747.449 843.746 748.523 842.542 749.275C841.35 750.016 840.093 750.387 838.772 750.387C837.805 750.387 836.935 750.183 836.162 749.774C835.399 749.366 834.771 748.851 834.276 748.228V756.558H831.376ZM834.002 741.541C834.002 743.743 834.448 745.37 835.34 746.423C836.231 747.476 837.311 748.002 838.579 748.002C839.868 748.002 840.969 747.459 841.882 746.375C842.806 745.279 843.268 743.587 843.268 741.299C843.268 739.118 842.816 737.485 841.914 736.4C841.022 735.315 839.954 734.773 838.708 734.773C837.472 734.773 836.376 735.353 835.42 736.513C834.475 737.663 834.002 739.338 834.002 741.541ZM849.681 750V726.378H852.581V750H849.681ZM856.013 741.444C856.013 738.275 856.894 735.928 858.656 734.402C860.127 733.135 861.921 732.501 864.038 732.501C866.39 732.501 868.313 733.274 869.806 734.821C871.299 736.357 872.046 738.484 872.046 741.202C872.046 743.404 871.713 745.139 871.047 746.407C870.392 747.664 869.43 748.641 868.163 749.339C866.906 750.038 865.531 750.387 864.038 750.387C861.642 750.387 859.703 749.619 858.221 748.083C856.749 746.546 856.013 744.333 856.013 741.444ZM858.994 741.444C858.994 743.635 859.472 745.279 860.428 746.375C861.384 747.459 862.587 748.002 864.038 748.002C865.477 748.002 866.675 747.454 867.631 746.358C868.587 745.263 869.065 743.592 869.065 741.347C869.065 739.231 868.582 737.63 867.615 736.545C866.659 735.45 865.466 734.902 864.038 734.902C862.587 734.902 861.384 735.444 860.428 736.529C859.472 737.614 858.994 739.252 858.994 741.444ZM875.43 750V732.888H878.04V735.482C878.706 734.268 879.318 733.468 879.877 733.081C880.446 732.694 881.069 732.501 881.746 732.501C882.724 732.501 883.717 732.812 884.727 733.436L883.728 736.126C883.019 735.708 882.31 735.498 881.601 735.498C880.967 735.498 880.398 735.691 879.893 736.078C879.388 736.454 879.028 736.98 878.813 737.657C878.491 738.688 878.33 739.816 878.33 741.041V750H875.43ZM898.166 744.489L901.163 744.86C900.69 746.611 899.814 747.97 898.536 748.937C897.258 749.903 895.625 750.387 893.638 750.387C891.135 750.387 889.147 749.619 887.676 748.083C886.215 746.536 885.484 744.371 885.484 741.589C885.484 738.71 886.226 736.476 887.708 734.886C889.19 733.296 891.113 732.501 893.477 732.501C895.765 732.501 897.634 733.28 899.084 734.837C900.534 736.395 901.259 738.586 901.259 741.412C901.259 741.583 901.254 741.841 901.243 742.185H888.481C888.589 744.065 889.121 745.504 890.077 746.503C891.033 747.502 892.225 748.002 893.654 748.002C894.717 748.002 895.625 747.723 896.377 747.164C897.129 746.605 897.725 745.714 898.166 744.489ZM888.643 739.8H898.198C898.069 738.361 897.704 737.281 897.102 736.562C896.178 735.444 894.98 734.886 893.509 734.886C892.177 734.886 891.054 735.332 890.141 736.223C889.239 737.115 888.739 738.307 888.643 739.8Z" fill="black"/>
<path d="M938.354 739.354C938.549 739.158 938.549 738.842 938.354 738.646L935.172 735.464C934.976 735.269 934.66 735.269 934.464 735.464C934.269 735.66 934.269 735.976 934.464 736.172L937.293 739L934.464 741.828C934.269 742.024 934.269 742.34 934.464 742.536C934.66 742.731 934.976 742.731 935.172 742.536L938.354 739.354ZM912 739.5H938V738.5H912V739.5Z" fill="black"/>
</g>
<defs>
<filter id="filter0_d_408_455" x="541" y="419" width="965" height="639.596" filterUnits="userSpaceOnUse" color-interpolation-filters="sRGB">
<feFlood flood-opacity="0" result="BackgroundImageFix"/>
<feColorMatrix in="SourceAlpha" type="matrix" values="0 0 0 0 0 0 0 0 0 0 0 0 0 0 0 0 0 0 127 0" result="hardAlpha"/>
<feOffset/>
<feGaussianBlur stdDeviation="50"/>
<feComposite in2="hardAlpha" operator="out"/>
<feColorMatrix type="matrix" values="0 0 0 0 0 0 0 0 0 0 0 0 0 0 0 0 0 0 0.25 0"/>
<feBlend mode="normal" in2="BackgroundImageFix" result="effect1_dropShadow_408_455"/>
<feBlend mode="normal" in="SourceGraphic" in2="effect1_dropShadow_408_455" result="shape"/>
</filter>
<filter id="filter1_d_408_455" x="107" y="252" width="965" height="639.596" filterUnits="userSpaceOnUse" color-interpolation-filters="sRGB">
<feFlood flood-opacity="0" result="BackgroundImageFix"/>
<feColorMatrix in="SourceAlpha" type="matrix" values="0 0 0 0 0 0 0 0 0 0 0 0 0 0 0 0 0 0 127 0" result="hardAlpha"/>
<feOffset/>
<feGaussianBlur stdDeviation="50"/>
<feComposite in2="hardAlpha" operator="out"/>
<feColorMatrix type="matrix" values="0 0 0 0 0 0 0 0 0 0 0 0 0 0 0 0 0 0 0.25 0"/>
<feBlend mode="normal" in2="BackgroundImageFix" result="effect1_dropShadow_408_455"/>
<feBlend mode="normal" in="SourceGraphic" in2="effect1_dropShadow_408_455" result="shape"/>
</filter>
<filter id="filter2_d_408_455" x="489" y="74" width="965" height="639.596" filterUnits="userSpaceOnUse" color-interpolation-filters="sRGB">
<feFlood flood-opacity="0" result="BackgroundImageFix"/>
<feColorMatrix in="SourceAlpha" type="matrix" values="0 0 0 0 0 0 0 0 0 0 0 0 0 0 0 0 0 0 127 0" result="hardAlpha"/>
<feOffset/>
<feGaussianBlur stdDeviation="50"/>
<feComposite in2="hardAlpha" operator="out"/>
<feColorMatrix type="matrix" values="0 0 0 0 0 0 0 0 0 0 0 0 0 0 0 0 0 0 0.25 0"/>
<feBlend mode="normal" in2="BackgroundImageFix" result="effect1_dropShadow_408_455"/>
<feBlend mode="normal" in="SourceGraphic" in2="effect1_dropShadow_408_455" result="shape"/>
</filter>
<filter id="filter3_d_408_455" x="45" y="-35" width="965" height="639.596" filterUnits="userSpaceOnUse" color-interpolation-filters="sRGB">
<feFlood flood-opacity="0" result="BackgroundImageFix"/>
<feColorMatrix in="SourceAlpha" type="matrix" values="0 0 0 0 0 0 0 0 0 0 0 0 0 0 0 0 0 0 127 0" result="hardAlpha"/>
<feOffset/>
<feGaussianBlur stdDeviation="50"/>
<feComposite in2="hardAlpha" operator="out"/>
<feColorMatrix type="matrix" values="0 0 0 0 0 0 0 0 0 0 0 0 0 0 0 0 0 0 0.25 0"/>
<feBlend mode="normal" in2="BackgroundImageFix" result="effect1_dropShadow_408_455"/>
<feBlend mode="normal" in="SourceGraphic" in2="effect1_dropShadow_408_455" result="shape"/>
</filter>
<clipPath id="clip0_408_455">
<rect width="1609" height="1024" fill="white"/>
</clipPath>
</defs>
</svg>
